<svg width="26" height="26" viewBox="0 0 26 26" fill="none" xmlns="http://www.w3.org/2000/svg">
<path d="M5 17H1M1 25H17C18.2427 25 18.864 25 19.3533 24.7973C19.6771 24.6633 19.9713 24.4668 20.219 24.219C20.4668 23.9713 20.6633 23.6771 20.7973 23.3533C21 22.864 21 22.2427 21 21C21 19.7573 21 19.136 20.7973 18.6467C20.6633 18.3229 20.4668 18.0287 20.219 17.781C19.9713 17.5332 19.6771 17.3367 19.3533 17.2027C18.864 17 18.2427 17 17 17H14.3333H21C22.2427 17 22.864 17 23.3533 16.7973C23.6771 16.6633 23.9713 16.4668 24.219 16.219C24.4668 15.9713 24.6633 15.6771 24.7973 15.3533C25 14.864 25 14.2427 25 13C25 11.7573 25 11.136 24.7973 10.6467C24.6633 10.3229 24.4668 10.0287 24.219 9.78097C23.9713 9.53319 23.6771 9.33668 23.3533 9.20267C22.864 9 22.2427 9 21 9H1H15.6667C16.9093 9 17.5307 9 18.02 8.79733C18.3438 8.66332 18.6379 8.46681 18.8857 8.21904C19.1335 7.97126 19.33 7.67709 19.464 7.35333C19.6667 6.864 19.6667 6.24267 19.6667 5C19.6667 3.75733 19.6667 3.136 19.464 2.64667C19.33 2.32291 19.1335 2.02874 18.8857 1.78096C18.6379 1.53319 18.3438 1.33668 18.02 1.20267C17.5307 1 16.9093 1 15.6667 1H1" stroke="#1C1C1E" stroke-width="2" stroke-linecap="round" stroke-linejoin="round"/>
<path d="M13 9.16663V18.1937C13 19.8197 13 20.632 12.6197 20.8041C12.2382 20.9791 11.8077 20.3608 10.9478 19.127L10.3855 18.322C9.97367 17.7314 9.76833 17.4368 9.5 17.4368C9.23167 17.4368 9.02633 17.7314 8.61333 18.322L8.05333 19.127C7.19233 20.3608 6.76183 20.9791 6.3815 20.8041C6 20.632 6 19.8197 6 18.1937V9.16663" stroke="#1C1C1E" stroke-width="2" stroke-linecap="round" stroke-linejoin="round"/>
</svg>
